<svg width="339" height="338" viewBox="0 0 339 338" fill="none" xmlns="http://www.w3.org/2000/svg">
<path fill-rule="evenodd" clip-rule="evenodd" d="M169.5 0C262.836 0 338.5 75.6639 338.5 169C338.5 226.929 309.352 278.046 264.924 308.496L265.127 308.754C259.928 312.852 254.593 315.922 249.206 318.056C225.461 330.78 198.324 338 169.5 338C76.1639 338 0.5 262.336 0.5 169C0.5 75.6639 76.1639 0 169.5 0ZM169.5 19.8824C87.1446 19.8824 20.3824 86.6446 20.3824 169C20.3824 251.355 87.1446 318.118 169.5 318.118C180.635 318.118 191.484 316.893 201.922 314.579C196.249 311.56 191.005 307.775 186.295 303.555C176.266 294.57 168.165 283.197 162.976 271.672C160.306 265.741 158.28 259.473 157.266 253.255H135.656C132.992 253.255 130.441 252.191 128.558 250.309C126.675 248.426 125.612 245.875 125.612 243.211V213.086H105.532C102.868 213.086 100.315 212.031 98.4326 210.149C96.5497 208.266 95.4866 205.705 95.4866 203.04V132.757L85.4519 132.746V112.666H125.612V52.4171H145.701V112.666H185.861V52.4171H205.95V112.666H246.11L246.12 132.757H236.075V203.04C236.075 205.704 235.012 208.266 233.129 210.149C231.247 212.031 228.694 213.086 226.03 213.086H205.95V243.211C205.95 245.875 204.886 248.426 203.004 250.309C201.121 252.191 198.57 253.254 195.906 253.255H177.54C178.307 256.447 179.479 259.897 181.106 263.51C185.193 272.589 191.668 281.673 199.562 288.746C207.478 295.838 216.333 300.488 225.168 301.663C230.162 302.327 235.433 301.923 240.899 299.942C287.207 274.638 318.618 225.488 318.618 169C318.618 86.6446 251.855 19.8824 169.5 19.8824Z" fill="black"/>
</svg>
